<?xml version="1.0" encoding="UTF-8" standalone="no"?>
<svg
   xmlns:dc="http://purl.org/dc/elements/1.1/"
   xmlns:cc="http://creativecommons.org/ns#"
   xmlns:rdf="http://www.w3.org/1999/02/22-rdf-syntax-ns#"
   xmlns:svg="http://www.w3.org/2000/svg"
   xmlns="http://www.w3.org/2000/svg"
   id="svg8"
   version="1.1"
   viewBox="0 0 182.03799 43.303001"
   height="43.303001mm"
   width="182.03799mm">
  <defs
     id="defs2" />
  <metadata
     id="metadata5">
    <rdf:RDF>
      <cc:Work
         rdf:about="">
        <dc:format>image/svg+xml</dc:format>
        <dc:type
           rdf:resource="http://purl.org/dc/dcmitype/StillImage" />
        <dc:title></dc:title>
      </cc:Work>
    </rdf:RDF>
  </metadata>
  <g
     transform="translate(0,-253.697)"
     id="layer1">
    <rect
       y="253.69701"
       x="0"
       height="43.303001"
       width="182.03793"
       id="rect819-6"
       style="fill:#1d69ab;fill-opacity:1;stroke:none;stroke-width:5.37709713;stroke-miterlimit:4;stroke-dasharray:none;stroke-opacity:1" />
    <rect
       y="255.48735"
       x="2.9903531"
       height="39.722294"
       width="61.413296"
       id="rect819"
       style="fill:#ffffff;fill-opacity:1;stroke:#1d69ab;stroke-width:3.58070612;stroke-miterlimit:4;stroke-dasharray:none;stroke-opacity:1" />
    <g
       id="text817"
       style="font-style:normal;font-weight:normal;font-size:11.08334541px;line-height:1.25;font-family:sans-serif;letter-spacing:0px;word-spacing:0px;fill:#000000;fill-opacity:1;stroke:none;stroke-width:0.27708364"
       aria-label="CODE">
      <path
         id="path4529"
         style="fill:#1d69ab;fill-opacity:1;stroke-width:0.27708364"
         d="m 9.8883322,275.34161 q 0,-1.1704 0.4078668,-2.26987 0.425601,-1.1172 1.223602,-2.0216 0.815734,-0.9044 1.968402,-1.4364 1.152668,-0.54974 2.606803,-0.54974 1.737868,0 2.996936,0.76254 1.276802,0.76253 1.879736,1.98613 l -1.862002,1.29454 q -0.319201,-0.70934 -0.833468,-1.1172 -0.514267,-0.40787 -1.117201,-0.5852 -0.585201,-0.17734 -1.134935,-0.17734 -0.922134,0 -1.613735,0.3724 -0.673867,0.3724 -1.134934,0.97534 -0.443334,0.60293 -0.673868,1.34773 -0.230533,0.7448 -0.230533,1.50734 0,0.81573 0.266,1.596 0.266,0.76253 0.744801,1.36547 0.496534,0.5852 1.170401,0.93986 0.691601,0.33694 1.507335,0.33694 0.567467,0 1.170401,-0.19507 0.602934,-0.19507 1.117201,-0.62067 0.514268,-0.4256 0.833468,-1.1172 l 1.986135,1.1704 q -0.390133,0.93987 -1.241334,1.59601 -0.833468,0.65613 -1.879736,0.99306 -1.028534,0.33694 -2.057069,0.33694 -1.347734,0 -2.464936,-0.54974 -1.099467,-0.56746 -1.915202,-1.4896 -0.815734,-0.93987 -1.276801,-2.09253 -0.4433338,-1.17041 -0.4433338,-2.35854 z" />
      <path
         id="path4531"
         style="fill:#1d69ab;fill-opacity:1;stroke-width:0.27708364"
         d="m 27.97595,281.81428 q -1.383202,0 -2.500403,-0.532 -1.117201,-0.532 -1.932935,-1.4364 -0.815735,-0.92213 -1.259068,-2.05707 -0.443334,-1.15267 -0.443334,-2.35853 0,-1.25907 0.461067,-2.39401 0.4788,-1.15266 1.294535,-2.03933 0.833467,-0.9044 1.968402,-1.41867 1.134934,-0.532 2.464936,-0.532 1.365468,0 2.482669,0.54973 1.134935,0.54974 1.932936,1.47187 0.798001,0.92214 1.223601,2.05707 0.443334,1.13493 0.443334,2.3408 0,1.24134 -0.461067,2.39401 -0.443334,1.13493 -1.276802,2.03933 -0.815734,0.88667 -1.950669,1.40094 -1.117201,0.51426 -2.447202,0.51426 z m -3.653071,-6.384 q 0,0.81573 0.248267,1.57826 0.248267,0.76254 0.709334,1.36547 0.478801,0.5852 1.152668,0.93987 0.691601,0.33693 1.560535,0.33693 0.904401,0 1.578269,-0.35466 0.673867,-0.3724 1.134934,-0.97534 0.478801,-0.60293 0.709334,-1.36547 0.230534,-0.76253 0.230534,-1.52506 0,-0.81574 -0.248267,-1.56054 -0.248267,-0.76253 -0.727068,-1.34773 -0.4788,-0.60294 -1.152668,-0.93987 -0.673867,-0.35467 -1.542801,-0.35467 -0.868934,0 -1.560535,0.3724 -0.673868,0.35467 -1.152668,0.9576 -0.461067,0.5852 -0.709334,1.34774 -0.230534,0.7448 -0.230534,1.52507 z" />
      <path
         id="path4533"
         style="fill:#1d69ab;fill-opacity:1;stroke-width:0.27708364"
         d="m 36.009311,281.72562 v -12.59068 h 4.575205 q 2.057068,0 3.44027,0.8512 1.383201,0.83346 2.074802,2.26987 0.691601,1.41866 0.691601,3.15653 0,1.9152 -0.762534,3.33387 -0.762534,1.41867 -2.163469,2.19894 -1.383202,0.78027 -3.28067,0.78027 z m 8.316942,-6.31308 q 0,-1.2236 -0.443334,-2.14573 -0.443334,-0.93987 -1.276801,-1.45414 -0.833468,-0.532 -2.021602,-0.532 h -2.128003 v 8.29921 h 2.128003 q 1.223601,0 2.039335,-0.54973 0.833468,-0.54974 1.259068,-1.4896 0.443334,-0.93987 0.443334,-2.12801 z" />
      <path
         id="path4535"
         style="fill:#1d69ab;fill-opacity:1;stroke-width:0.27708364"
         d="m 57.465713,279.57988 v 2.14574 H 48.72317 v -12.59068 h 8.582943 v 2.14573 h -6.13574 v 3.03241 h 5.284539 v 1.98613 h -5.284539 v 3.28067 z" />
    </g>
    <g
       id="text868"
       style="font-style:normal;font-weight:normal;font-size:11.49776459px;line-height:1.25;font-family:sans-serif;letter-spacing:0px;word-spacing:0px;fill:#000000;fill-opacity:1;stroke:none;stroke-width:0.28744414"
       transform="scale(0.99378793,1.0062509)"
       aria-label="ARTISTS">
      <path
         id="path4538"
         style="fill:#ffffff;fill-opacity:1;stroke-width:0.28744414"
         d="m 79.166642,282.52145 0.147171,-3.85098 h -4.09627 l -1.2019,3.85098 h -4.684956 l 6.303841,-17.66056 h 8.094427 l 0.09812,17.66056 z m -1.005671,-13.36806 -1.937757,6.23025 h 3.213242 l 0.269814,-6.23025 z" />
      <path
         id="path4540"
         style="fill:#ffffff;fill-opacity:1;stroke-width:0.28744414"
         d="m 96.647438,264.86089 q 2.796256,0 3.973632,1.22642 0.88302,0.93209 0.88302,2.35475 0,0.49057 -0.0981,1.0302 l -0.3434,1.91322 q -0.29434,1.59436 -1.0302,2.5755 -0.711328,0.98115 -1.594357,1.39813 l 2.232097,7.16234 h -4.954768 l -2.060399,-6.59818 h -1.520771 l -1.005672,6.59818 h -4.709484 l 3.115128,-17.66056 z m -1.5453,3.82645 h -1.839642 l -0.637743,4.26797 h 1.717 q 1.300014,0 1.864171,-0.61321 0.564157,-0.63774 0.564157,-1.66794 0,-1.98682 -1.667943,-1.98682 z" />
      <path
         id="path4542"
         style="fill:#ffffff;fill-opacity:1;stroke-width:0.28744414"
         d="m 120.03617,268.68734 h -6.03403 l -2.42832,13.83411 h -4.43967 l 2.42832,-13.83411 h -6.05855 l 0.6868,-3.82645 h 16.53225 z" />
      <path
         id="path4544"
         style="fill:#ffffff;fill-opacity:1;stroke-width:0.28744414"
         d="m 127.40353,264.86089 -3.0906,17.66056 h -4.43967 l 3.11513,-17.66056 z" />
      <path
         id="path4546"
         style="fill:#ffffff;fill-opacity:1;stroke-width:0.28744414"
         d="m 132.73387,277.4931 q 0,1.69247 2.42833,1.69247 2.45286,0 2.45286,-1.52077 0,-0.80944 -0.83397,-1.32454 -0.83397,-0.5151 -2.03587,-0.8585 -1.17738,-0.3434 -2.37928,-0.78492 -1.17737,-0.46604 -2.01134,-1.42266 -0.83397,-0.98114 -0.83397,-2.42832 0,-6.15667 7.92273,-6.15667 2.89437,0 4.36608,1.10378 1.49625,1.07926 1.49625,3.01702 0,0.71132 -0.19623,1.37359 -0.1717,0.63775 -0.36793,0.90756 l -0.19623,0.29434 h -4.34156 q 0.53963,-0.56415 0.53963,-1.42265 0,-1.59436 -2.08493,-1.59436 -2.62455,0 -2.62455,1.66794 0,0.83397 0.83397,1.32455 0.83397,0.49057 2.01134,0.78491 1.2019,0.26981 2.4038,0.6868 1.2019,0.41699 2.03587,1.39813 0.83397,0.95661 0.83397,2.50191 0,3.11513 -1.86417,4.6359 -1.86417,1.49624 -5.73968,1.49624 -3.87552,0 -5.29817,-1.3736 -1.05473,-1.0302 -1.05473,-2.84531 0,-0.6868 0.14717,-1.49624 l 0.0736,-0.39246 h 4.41514 l -0.0491,0.29434 q -0.0491,0.24529 -0.0491,0.44152 z" />
      <path
         id="path4548"
         style="fill:#ffffff;fill-opacity:1;stroke-width:0.28744414"
         d="m 161.71397,268.68734 h -6.03403 l -2.42833,13.83411 h -4.43967 l 2.42833,-13.83411 h -6.05856 l 0.6868,-3.82645 h 16.53226 z" />
      <path
         id="path4550"
         style="fill:#ffffff;fill-opacity:1;stroke-width:0.28744414"
         d="m 166.23601,277.4931 q 0,1.69247 2.42833,1.69247 2.45286,0 2.45286,-1.52077 0,-0.80944 -0.83397,-1.32454 -0.83397,-0.5151 -2.03587,-0.8585 -1.17738,-0.3434 -2.37928,-0.78492 -1.17737,-0.46604 -2.01134,-1.42266 -0.83397,-0.98114 -0.83397,-2.42832 0,-6.15667 7.92273,-6.15667 2.89437,0 4.36608,1.10378 1.49625,1.07926 1.49625,3.01702 0,0.71132 -0.19623,1.37359 -0.1717,0.63775 -0.36793,0.90756 l -0.19623,0.29434 h -4.34156 q 0.53963,-0.56415 0.53963,-1.42265 0,-1.59436 -2.08493,-1.59436 -2.62455,0 -2.62455,1.66794 0,0.83397 0.83397,1.32455 0.83397,0.49057 2.01134,0.78491 1.2019,0.26981 2.4038,0.6868 1.2019,0.41699 2.03587,1.39813 0.83397,0.95661 0.83397,2.50191 0,3.11513 -1.86417,4.6359 -1.86417,1.49624 -5.73968,1.49624 -3.87552,0 -5.29817,-1.3736 -1.05473,-1.0302 -1.05473,-2.84531 0,-0.6868 0.14717,-1.49624 l 0.0736,-0.39246 h 4.41514 l -0.0491,0.29434 q -0.0491,0.24529 -0.0491,0.44152 z" />
    </g>
  </g>
</svg>
